<svg width="12" height="13" viewBox="0 0 12 13" fill="none" xmlns="http://www.w3.org/2000/svg">
<path d="M10.995 5.00409H3.40501L6.70501 1.71409C6.89332 1.52579 6.9991 1.27039 6.9991 1.00409C6.9991 0.73779 6.89332 0.482395 6.70501 0.294092C6.51671 0.105788 6.26132 0 5.99501 0C5.72871 0 5.47332 0.105788 5.28501 0.294092L0.285014 5.29409C0.193973 5.3892 0.122608 5.50134 0.0750135 5.62409C-0.0250045 5.86755 -0.0250045 6.14063 0.0750135 6.38409C0.122608 6.50684 0.193973 6.61899 0.285014 6.71409L5.28501 11.7141C5.37798 11.8078 5.48858 11.8822 5.61044 11.933C5.7323 11.9838 5.863 12.0099 5.99501 12.0099C6.12703 12.0099 6.25773 11.9838 6.37959 11.933C6.50145 11.8822 6.61205 11.8078 6.70501 11.7141C6.79874 11.6211 6.87314 11.5105 6.9239 11.3887C6.97467 11.2668 7.00081 11.1361 7.00081 11.0041C7.00081 10.8721 6.97467 10.7414 6.9239 10.6195C6.87314 10.4977 6.79874 10.3871 6.70501 10.2941L3.40501 7.00409H10.995C11.2602 7.00409 11.5146 6.89873 11.7021 6.7112C11.8897 6.52366 11.995 6.26931 11.995 6.00409C11.995 5.73888 11.8897 5.48452 11.7021 5.29699C11.5146 5.10945 11.2602 5.00409 10.995 5.00409Z" fill="white"/>
</svg>
