<svg width="16" height="16" viewBox="0 0 16 16" fill="none" xmlns="http://www.w3.org/2000/svg">
<path d="M10.176 5.432L6.744 8.872L5.424 7.552C5.35228 7.46825 5.26403 7.40024 5.16478 7.35222C5.06553 7.3042 4.95742 7.27722 4.84725 7.27296C4.73707 7.2687 4.6272 7.28727 4.52454 7.32749C4.42188 7.36771 4.32865 7.42871 4.25068 7.50668C4.17272 7.58464 4.11171 7.67788 4.07149 7.78054C4.03127 7.8832 4.01271 7.99306 4.01696 8.10324C4.02122 8.21342 4.0482 8.32152 4.09622 8.42077C4.14424 8.52003 4.21226 8.60828 4.296 8.68L6.176 10.568C6.25075 10.6421 6.33941 10.7008 6.43688 10.7406C6.53435 10.7804 6.63872 10.8006 6.744 10.8C6.95387 10.7991 7.15499 10.7158 7.304 10.568L11.304 6.568C11.379 6.49363 11.4385 6.40515 11.4791 6.30766C11.5197 6.21017 11.5406 6.10561 11.5406 6C11.5406 5.89439 11.5197 5.78982 11.4791 5.69234C11.4385 5.59485 11.379 5.50637 11.304 5.432C11.1541 5.283 10.9514 5.19936 10.74 5.19936C10.5287 5.19936 10.3259 5.283 10.176 5.432ZM8 0C6.41775 0 4.87103 0.469192 3.55544 1.34824C2.23985 2.22729 1.21447 3.47672 0.608967 4.93853C0.00346627 6.40034 -0.15496 8.00887 0.153721 9.56072C0.462403 11.1126 1.22433 12.538 2.34315 13.6569C3.46197 14.7757 4.88743 15.5376 6.43928 15.8463C7.99113 16.155 9.59966 15.9965 11.0615 15.391C12.5233 14.7855 13.7727 13.7602 14.6518 12.4446C15.5308 11.129 16 9.58225 16 8C16 6.94942 15.7931 5.90914 15.391 4.93853C14.989 3.96793 14.3997 3.08601 13.6569 2.34315C12.914 1.60028 12.0321 1.011 11.0615 0.608964C10.0909 0.206926 9.05058 0 8 0ZM8 14.4C6.7342 14.4 5.49683 14.0246 4.44435 13.3214C3.39188 12.6182 2.57158 11.6186 2.08717 10.4492C1.60277 9.27972 1.47603 7.9929 1.72298 6.75142C1.96992 5.50994 2.57946 4.36957 3.47452 3.47452C4.36958 2.57946 5.50995 1.96992 6.75142 1.72297C7.9929 1.47603 9.27973 1.60277 10.4492 2.08717C11.6186 2.57157 12.6182 3.39187 13.3214 4.44435C14.0246 5.49682 14.4 6.7342 14.4 8C14.4 9.69738 13.7257 11.3252 12.5255 12.5255C11.3253 13.7257 9.69739 14.4 8 14.4Z" fill="white"/>
</svg>
