<svg width="16" height="16" viewBox="0 0 16 16" fill="none" xmlns="http://www.w3.org/2000/svg">
<path d="M10.932 5.06803C10.8585 4.99396 10.7711 4.93516 10.6748 4.89504C10.5785 4.85492 10.4752 4.83426 10.3709 4.83426C10.2665 4.83426 10.1632 4.85492 10.0669 4.89504C9.97063 4.93516 9.88323 4.99396 9.80976 5.06803L8 6.88569L6.19024 5.06803C6.04142 4.91921 5.83959 4.83561 5.62913 4.83561C5.41868 4.83561 5.21684 4.91921 5.06803 5.06803C4.91921 5.21684 4.83561 5.41868 4.83561 5.62913C4.83561 5.83959 4.91921 6.04142 5.06803 6.19024L6.88569 8L5.06803 9.80976C4.99396 9.88323 4.93516 9.97063 4.89504 10.0669C4.85492 10.1632 4.83426 10.2665 4.83426 10.3709C4.83426 10.4752 4.85492 10.5785 4.89504 10.6748C4.93516 10.7711 4.99396 10.8585 5.06803 10.932C5.1415 11.006 5.2289 11.0648 5.32521 11.105C5.42151 11.1451 5.52481 11.1657 5.62913 11.1657C5.73346 11.1657 5.83676 11.1451 5.93306 11.105C6.02936 11.0648 6.11677 11.006 6.19024 10.932L8 9.11431L9.80976 10.932C9.88323 11.006 9.97063 11.0648 10.0669 11.105C10.1632 11.1451 10.2665 11.1657 10.3709 11.1657C10.4752 11.1657 10.5785 11.1451 10.6748 11.105C10.7711 11.0648 10.8585 11.006 10.932 10.932C11.006 10.8585 11.0648 10.7711 11.105 10.6748C11.1451 10.5785 11.1657 10.4752 11.1657 10.3709C11.1657 10.2665 11.1451 10.1632 11.105 10.0669C11.0648 9.97063 11.006 9.88323 10.932 9.80976L9.11431 8L10.932 6.19024C11.006 6.11677 11.0648 6.02936 11.105 5.93306C11.1451 5.83676 11.1657 5.73346 11.1657 5.62913C11.1657 5.52481 11.1451 5.42151 11.105 5.32521C11.0648 5.2289 11.006 5.1415 10.932 5.06803ZM13.5873 2.41266C12.8583 1.65785 11.9863 1.05579 11.0221 0.64161C10.0579 0.227428 9.0209 0.00941687 7.97156 0.000298387C6.92222 -0.00882009 5.88157 0.191136 4.91033 0.588501C3.9391 0.985865 3.05673 1.57268 2.3147 2.3147C1.57268 3.05673 0.985865 3.9391 0.588501 4.91033C0.191136 5.88157 -0.00882009 6.92222 0.000298387 7.97156C0.00941687 9.0209 0.227428 10.0579 0.64161 11.0221C1.05579 11.9863 1.65785 12.8583 2.41266 13.5873C3.14167 14.3421 4.01372 14.9442 4.9779 15.3584C5.94208 15.7726 6.9791 15.9906 8.02844 15.9997C9.07778 16.0088 10.1184 15.8089 11.0897 15.4115C12.0609 15.0141 12.9433 14.4273 13.6853 13.6853C14.4273 12.9433 15.0141 12.0609 15.4115 11.0897C15.8089 10.1184 16.0088 9.07778 15.9997 8.02844C15.9906 6.9791 15.7726 5.94208 15.3584 4.9779C14.9442 4.01372 14.3421 3.14167 13.5873 2.41266ZM12.473 12.473C11.4394 13.5078 10.0789 14.1523 8.62337 14.2965C7.16786 14.4407 5.70738 14.0758 4.49074 13.2639C3.2741 12.4521 2.37659 11.2435 1.95111 9.84413C1.52563 8.44474 1.59851 6.94112 2.15733 5.58945C2.71615 4.23777 3.72634 3.12166 5.01578 2.43128C6.30523 1.74089 7.79416 1.51894 9.2289 1.80325C10.6636 2.08755 11.9554 2.86051 12.8842 3.99044C13.8129 5.12037 14.3212 6.53736 14.3223 8C14.3251 8.83082 14.1631 9.65395 13.8457 10.4217C13.5283 11.1895 13.0617 11.8868 12.473 12.473Z" fill="white"/>
</svg>
