<svg width="106" height="106" viewBox="0 0 106 106" fill="none" xmlns="http://www.w3.org/2000/svg">
<circle cx="53" cy="52.9998" r="52.9412" fill="#00D456"/>
<path d="M66.7724 38.6434C66.6145 38.5078 66.4291 38.4079 66.2291 38.3504C66.029 38.2928 65.8189 38.2791 65.613 38.3101L46.7725 41.2086C46.4293 41.2607 46.1163 41.4341 45.8903 41.6974C45.6642 41.9607 45.5401 42.2964 45.5406 42.6434V57.6434C44.8634 57.3127 44.1203 57.1393 43.3667 57.1362C42.3634 57.1362 41.3827 57.4337 40.5485 57.991C39.7144 58.5484 39.0642 59.3406 38.6803 60.2675C38.2964 61.1943 38.1959 62.2142 38.3917 63.1982C38.5874 64.1822 39.0705 65.086 39.7799 65.7954C40.4893 66.5048 41.3931 66.9879 42.3771 67.1836C43.361 67.3793 44.3809 67.2789 45.3078 66.895C46.2347 66.511 47.0269 65.8609 47.5843 65.0267C48.1416 64.1926 48.4391 63.2119 48.4391 62.2086V51.1362L64.3811 48.6869V54.7449C63.704 54.4141 62.9608 54.2407 62.2072 54.2376C61.204 54.2376 60.2233 54.5351 59.3891 55.0925C58.555 55.6498 57.9048 56.4421 57.5209 57.3689C57.137 58.2958 57.0365 59.3157 57.2322 60.2997C57.428 61.2836 57.9111 62.1875 58.6205 62.8968C59.3299 63.6062 60.2337 64.0893 61.2176 64.2851C62.2016 64.4808 63.2215 64.3803 64.1484 63.9964C65.0753 63.6125 65.8675 62.9623 66.4248 62.1282C66.9822 61.294 67.2797 60.3133 67.2797 59.3101V39.7449C67.2797 39.5355 67.2344 39.3287 67.1468 39.1385C67.0592 38.9484 66.9315 38.7795 66.7724 38.6434ZM43.3667 64.3825C42.9367 64.3825 42.5164 64.255 42.1589 64.0162C41.8014 63.7773 41.5228 63.4378 41.3582 63.0405C41.1937 62.6433 41.1506 62.2062 41.2345 61.7845C41.3184 61.3628 41.5254 60.9755 41.8295 60.6714C42.1335 60.3674 42.5208 60.1604 42.9425 60.0765C43.3642 59.9926 43.8013 60.0357 44.1986 60.2002C44.5958 60.3647 44.9353 60.6434 45.1742 61.0009C45.4131 61.3584 45.5406 61.7787 45.5406 62.2086C45.5406 62.7852 45.3115 63.3381 44.9038 63.7458C44.4962 64.1535 43.9432 64.3825 43.3667 64.3825ZM62.2072 61.484C61.7773 61.484 61.357 61.3565 60.9995 61.1176C60.642 60.8787 60.3633 60.5392 60.1988 60.142C60.0343 59.7448 59.9912 59.3077 60.0751 58.886C60.159 58.4643 60.366 58.0769 60.67 57.7729C60.9741 57.4689 61.3614 57.2618 61.7831 57.1779C62.2048 57.094 62.6419 57.1371 63.0392 57.3016C63.4364 57.4662 63.7759 57.7448 64.0148 58.1023C64.2536 58.4598 64.3811 58.8801 64.3811 59.3101C64.3811 59.8866 64.1521 60.4396 63.7444 60.8473C63.3367 61.2549 62.7838 61.484 62.2072 61.484ZM64.3811 45.7449L48.4391 48.1941V43.8463L64.3811 41.4405V45.7449Z" fill="white"/>
</svg>
