<svg width="14" height="19" viewBox="0 0 14 19" fill="none" xmlns="http://www.w3.org/2000/svg">
<path d="M7 12.0909C7.92826 12.0909 8.8185 11.7269 9.47487 11.0791C10.1313 10.4312 10.5 9.55257 10.5 8.63636V3.45455C10.5 2.53834 10.1313 1.65967 9.47487 1.01181C8.8185 0.36396 7.92826 0 7 0C6.07174 0 5.1815 0.36396 4.52513 1.01181C3.86875 1.65967 3.5 2.53834 3.5 3.45455V8.63636C3.5 9.55257 3.86875 10.4312 4.52513 11.0791C5.1815 11.7269 6.07174 12.0909 7 12.0909ZM5.25 3.45455C5.25 2.99644 5.43437 2.55711 5.76256 2.23318C6.09075 1.90925 6.53587 1.72727 7 1.72727C7.46413 1.72727 7.90925 1.90925 8.23744 2.23318C8.56563 2.55711 8.75 2.99644 8.75 3.45455V8.63636C8.75 9.09447 8.56563 9.5338 8.23744 9.85773C7.90925 10.1817 7.46413 10.3636 7 10.3636C6.53587 10.3636 6.09075 10.1817 5.76256 9.85773C5.43437 9.5338 5.25 9.09447 5.25 8.63636V3.45455ZM14 8.63636C14 8.40731 13.9078 8.18764 13.7437 8.02568C13.5796 7.86372 13.3571 7.77273 13.125 7.77273C12.8929 7.77273 12.6704 7.86372 12.5063 8.02568C12.3422 8.18764 12.25 8.40731 12.25 8.63636C12.25 10.0107 11.6969 11.3287 10.7123 12.3005C9.72775 13.2722 8.39239 13.8182 7 13.8182C5.60761 13.8182 4.27226 13.2722 3.28769 12.3005C2.30312 11.3287 1.75 10.0107 1.75 8.63636C1.75 8.40731 1.65781 8.18764 1.49372 8.02568C1.32962 7.86372 1.10706 7.77273 0.875 7.77273C0.642936 7.77273 0.420376 7.86372 0.256282 8.02568C0.0921874 8.18764 0 8.40731 0 8.63636C0.00154507 10.3181 0.624507 11.9416 1.7521 13.2024C2.87969 14.4632 4.43448 15.2748 6.125 15.485V17.2727H4.375C4.14294 17.2727 3.92038 17.3637 3.75628 17.5257C3.59219 17.6876 3.5 17.9073 3.5 18.1364C3.5 18.3654 3.59219 18.5851 3.75628 18.747C3.92038 18.909 4.14294 19 4.375 19H9.625C9.85706 19 10.0796 18.909 10.2437 18.747C10.4078 18.5851 10.5 18.3654 10.5 18.1364C10.5 17.9073 10.4078 17.6876 10.2437 17.5257C10.0796 17.3637 9.85706 17.2727 9.625 17.2727H7.875V15.485C9.56552 15.2748 11.1203 14.4632 12.2479 13.2024C13.3755 11.9416 13.9985 10.3181 14 8.63636Z" fill="#EA3453"/>
</svg>
