<svg width="16" height="16" viewBox="0 0 16 16" fill="none" xmlns="http://www.w3.org/2000/svg">
<path d="M8 16C12.4183 16 16 12.4183 16 8C16 3.58172 12.4183 0 8 0C3.58172 0 0 3.58172 0 8C0 12.4183 3.58172 16 8 16Z" fill="#FFB100"/>
<path d="M7.27276 5.81827H10.1819C10.6182 5.81827 10.9091 5.52736 10.9091 5.091C10.9091 4.65463 10.6182 4.36373 10.1819 4.36373H8.72731V3.63645C8.72731 3.20009 8.4364 2.90918 8.00003 2.90918C7.56367 2.90918 7.27276 3.20009 7.27276 3.63645V4.36373C6.0364 4.36373 5.09094 5.30918 5.09094 6.54554C5.09094 7.78191 6.0364 8.72736 7.27276 8.72736H8.72731C9.16367 8.72736 9.45458 9.01827 9.45458 9.45463C9.45458 9.891 9.16367 10.1819 8.72731 10.1819H5.81822C5.38185 10.1819 5.09094 10.4728 5.09094 10.9092C5.09094 11.3455 5.38185 11.6365 5.81822 11.6365H7.27276V12.3637C7.27276 12.8001 7.56367 13.091 8.00003 13.091C8.4364 13.091 8.72731 12.8001 8.72731 12.3637V11.6365C9.96367 11.6365 10.9091 10.691 10.9091 9.45463C10.9091 8.21827 9.96367 7.27282 8.72731 7.27282H7.27276C6.8364 7.27282 6.54549 6.98191 6.54549 6.54554C6.54549 6.10918 6.8364 5.81827 7.27276 5.81827Z" fill="white"/>
</svg>
