<svg width="17" height="17" viewBox="0 0 17 17" fill="none" xmlns="http://www.w3.org/2000/svg">
<path d="M16.3867 0.858906C16.2995 0.784075 16.1972 0.728908 16.0868 0.697159C15.9764 0.665409 15.8604 0.657823 15.7467 0.674917L5.34675 2.27483C5.15736 2.30356 4.98456 2.39929 4.85978 2.54462C4.73499 2.68995 4.6665 2.87523 4.66675 3.06678V11.3463C4.29296 11.1638 3.88274 11.068 3.46675 11.0663C2.91296 11.0663 2.37161 11.2305 1.91115 11.5382C1.45069 11.8458 1.09181 12.2831 0.879887 12.7947C0.667961 13.3063 0.612512 13.8693 0.720551 14.4124C0.828589 14.9555 1.09526 15.4544 1.48685 15.846C1.87844 16.2375 2.37735 16.5042 2.9205 16.6122C3.46364 16.7202 4.02663 16.6648 4.53826 16.4529C5.0499 16.241 5.4872 15.8821 5.79486 15.4217C6.10253 14.9612 6.26675 14.4199 6.26675 13.8662V7.75452L15.0667 6.40259V9.7464C14.693 9.56384 14.2827 9.46813 13.8667 9.46642C13.313 9.46642 12.7716 9.63063 12.3112 9.93828C11.8507 10.2459 11.4918 10.6832 11.2799 11.1948C11.068 11.7064 11.0125 12.2694 11.1206 12.8125C11.2286 13.3556 11.4953 13.8545 11.8868 14.246C12.2784 14.6376 12.7773 14.9043 13.3205 15.0123C13.8636 15.1203 14.4266 15.0649 14.9383 14.853C15.4499 14.6411 15.8872 14.2822 16.1949 13.8218C16.5025 13.3613 16.6667 12.82 16.6667 12.2663V1.46687C16.6668 1.35133 16.6417 1.23715 16.5934 1.1322C16.5451 1.02725 16.4746 0.934011 16.3867 0.858906ZM3.46675 15.0661C3.22941 15.0661 2.9974 14.9957 2.80006 14.8639C2.60273 14.732 2.44892 14.5446 2.35809 14.3254C2.26727 14.1061 2.2435 13.8648 2.28981 13.6321C2.33611 13.3993 2.4504 13.1855 2.61822 13.0177C2.78604 12.8499 2.99986 12.7356 3.23264 12.6893C3.46542 12.643 3.7067 12.6668 3.92597 12.7576C4.14524 12.8484 4.33265 13.0022 4.46451 13.1995C4.59637 13.3969 4.66675 13.6288 4.66675 13.8662C4.66675 14.1844 4.54032 14.4896 4.31528 14.7147C4.09023 14.9397 3.78501 15.0661 3.46675 15.0661ZM13.8667 13.4662C13.6294 13.4662 13.3974 13.3958 13.2001 13.264C13.0027 13.1321 12.8489 12.9447 12.7581 12.7255C12.6673 12.5062 12.6435 12.2649 12.6898 12.0322C12.7361 11.7994 12.8504 11.5856 13.0182 11.4178C13.186 11.25 13.3999 11.1357 13.6326 11.0894C13.8654 11.0431 14.1067 11.0668 14.326 11.1577C14.5452 11.2485 14.7327 11.4023 14.8645 11.5996C14.9964 11.7969 15.0667 12.0289 15.0667 12.2663C15.0667 12.5845 14.9403 12.8897 14.7153 13.1147C14.4902 13.3398 14.185 13.4662 13.8667 13.4662ZM15.0667 4.77868L6.26675 6.13061V3.73074L15.0667 2.40282V4.77868Z" fill="white"/>
</svg>
