<svg width="24" height="24" viewBox="0 0 24 24" fill="none" xmlns="http://www.w3.org/2000/svg">
<path d="M0 12C0 18.227 4.73513 23.3514 10.8162 23.9351H13.1838C19.2486 23.3351 24 18.227 24 12C24 5.36757 18.6324 0 12 0C5.36757 0 0 5.36757 0 12Z" fill="white"/>
<path d="M18.665 12.7459C14.9677 10.4756 9.55149 9.82695 5.18933 11.1567C4.70285 11.3026 4.41095 11.8215 4.57312 12.3242C4.71906 12.8107 5.2542 13.1026 5.74068 12.9405C9.55149 11.7891 14.465 12.3567 17.692 14.3351C18.1299 14.6107 18.7137 14.4648 18.9731 14.0269C19.2326 13.6053 19.1028 13.0215 18.665 12.7459Z" fill="#00D456"/>
<path d="M20.2379 8.70804C15.7784 6.0648 8.74058 5.82156 4.50815 7.10264C3.90815 7.28102 3.58382 7.91345 3.7622 8.49723C3.94058 9.09723 4.57301 9.42156 5.1568 9.24318C8.85409 8.12426 15.2271 8.33507 19.1027 10.6378C19.6379 10.9621 20.319 10.7837 20.6433 10.2486C20.9514 9.71345 20.773 9.01615 20.2379 8.70804Z" fill="#00D456"/>
<path d="M17.2543 16.2811C14.0921 14.3514 10.1678 13.8973 5.59482 14.9514C5.18942 15.0487 4.94617 15.4379 5.02725 15.8433C5.12455 16.2487 5.51374 16.4919 5.91915 16.4108C10.1029 15.4541 13.6381 15.8433 16.4597 17.5622C16.8164 17.773 17.2705 17.6595 17.4813 17.3189C17.7083 16.946 17.611 16.4919 17.2543 16.2811Z" fill="#00D456"/>
</svg>
