<svg width="24" height="24" viewBox="0 0 24 24" fill="none" xmlns="http://www.w3.org/2000/svg">
<path d="M14.026 12.4991L18.6799 7.8554C18.8837 7.65158 18.9982 7.37513 18.9982 7.08687C18.9982 6.79861 18.8837 6.52216 18.6799 6.31834C18.4761 6.11451 18.1997 6 17.9114 6C17.6232 6 17.3468 6.11451 17.143 6.31834L12.5 10.9728L7.85699 6.31834C7.65319 6.11451 7.37678 6 7.08856 6C6.80035 6 6.52394 6.11451 6.32014 6.31834C6.11634 6.52216 6.00185 6.79861 6.00185 7.08687C6.00185 7.37513 6.11634 7.65158 6.32014 7.8554L10.974 12.4991L6.32014 17.1427C6.2187 17.2434 6.13818 17.3631 6.08324 17.495C6.02829 17.6269 6 17.7684 6 17.9113C6 18.0542 6.02829 18.1957 6.08324 18.3276C6.13818 18.4595 6.2187 18.5792 6.32014 18.6798C6.42075 18.7813 6.54045 18.8618 6.67234 18.9168C6.80423 18.9717 6.94569 19 7.08856 19C7.23144 19 7.3729 18.9717 7.50479 18.9168C7.63667 18.8618 7.75637 18.7813 7.85699 18.6798L12.5 14.0253L17.143 18.6798C17.2436 18.7813 17.3633 18.8618 17.4952 18.9168C17.6271 18.9717 17.7686 19 17.9114 19C18.0543 19 18.1958 18.9717 18.3277 18.9168C18.4595 18.8618 18.5792 18.7813 18.6799 18.6798C18.7813 18.5792 18.8618 18.4595 18.9168 18.3276C18.9717 18.1957 19 18.0542 19 17.9113C19 17.7684 18.9717 17.6269 18.9168 17.495C18.8618 17.3631 18.7813 17.2434 18.6799 17.1427L14.026 12.4991Z" fill="white"/>
</svg>
